PathFileType	4	(X/Y/Z)	Patient4_TMGait_0pt5_01_left_06.trc.trc
DataRate	CameraRate	NumFrames	NumMarkers	Units	OrigDataRate	OrigDataStartFrame	OrigNumFrames
71.065989847716	71.065989847716	7	33	mm	71.065989847716	53	       141
Frame#	Time	L.ASIS			Sacral			L.Shoulder			Chest			R.Shoulder			Neck			R.ASIS			R.Thigh.Superior			R.Thigh.Lateral			R.Thigh.Inferior			R.Patella			L.Thigh.Superior			L.Thigh.Lateral			L.Thigh.Inferior			L.Patella			L.Shank.Superior			L.Shank.Lateral			L.Shank.Inferior			R.Shank.Superior			R.Shank.Lateral			R.Shank.Inferior			R.Heel			R.Midfoot.Superior			R.Midfoot.Lateral			R.Toe			L.Heel			L.Midfoot.Lateral			L.Midfoot.Superior			L.Toe			L.Elbow			L.Wrist			R.Elbow			R.Wrist			
		X1	Y1	Z1	X2	Y2	Z2	X3	Y3	Z3	X4	Y4	Z4	X5	Y5	Z5	X6	Y6	Z6	X7	Y7	Z7	X8	Y8	Z8	X9	Y9	Z9	X10	Y10	Z10	X11	Y11	Z11	X12	Y12	Z12	X13	Y13	Z13	X14	Y14	Z14	X15	Y15	Z15	X16	Y16	Z16	X17	Y17	Z17	X18	Y18	Z18	X19	Y19	Z19	X20	Y20	Z20	X21	Y21	Z21	X22	Y22	Z22	X23	Y23	Z23	X24	Y24	Z24	X25	Y25	Z25	X26	Y26	Z26	X27	Y27	Z27	X28	Y28	Z28	X29	Y29	Z29	X30	Y30	Z30	X31	Y31	Z31	X32	Y32	Z32	X33	Y33	Z33	

53	8.711714285714	701.275091466075	967.458686690763	296.934102024610	473.308149966264	999.280031352275	434.955346449167	642.116104610326	1443.422726306708	279.896306477303	729.514807996271	1373.616160919243	449.994057186675	621.769727112445	1435.900421856274	615.767078845801	619.056447869652	1499.345551891601	428.963904325017	692.136912436829	947.741644634240	571.086473425704	781.546334423334	776.691924886649	545.697383334653	738.241346212287	655.426938188447	615.114665341394	833.418125005286	615.823713598606	541.746758639231	850.965543773875	501.363872253472	564.849528715503	749.345316561483	751.498178922229	333.030316511852	665.224539226453	635.541483891409	268.060314284540	739.420254065717	557.873848054676	341.717186271092	736.579073674239	487.730875354473	354.539642716368	710.021515640159	414.766765644794	344.628551936414	624.915562720199	301.184260378103	286.933540825209	662.974988666066	191.695681750358	366.485764823597	772.178413187636	427.667330220959	569.594312643469	647.543780174127	393.707100415082	626.082250865117	630.171412168713	284.651723701194	578.602273225991	430.525947958294	244.408802698454	543.927235752474	585.744348600968	159.750759892783	591.614862651364	476.426921002088	177.455954863738	619.961003497988	629.396177346908	36.787141678744	622.060181003742	526.651903316208	37.146772897811	396.830304134547	606.577022451156	34.827924694143	321.437405848516	687.511741004369	95.949282389369	354.615665340544	817.661958984249	44.074571457818	335.201693452406	685.317539446918	1099.035960216451	139.689492368227	894.025134743951	941.706009120340	149.258958770725	540.576432835378	1090.200022953889	702.457345583245	579.026196816826	831.256122931450	710.815698972914	
54	8.725785714286	700.648553320536	967.837185696657	296.367391227247	472.305343142941	999.889314070939	433.351955957422	642.668411145262	1444.136463036420	278.583265535318	728.707492415006	1374.294344976621	449.279400054614	619.861987633197	1436.623217283278	614.233864062097	618.940369445663	1500.013247814906	427.573089140570	690.655487798211	949.011672988475	570.430114374191	781.885177524603	780.220994260771	543.563076147150	741.247449068332	658.260116468082	613.299079973117	835.978956523849	619.954392165232	538.863176989480	855.924884171477	506.132785090113	562.320771827203	746.600111726397	750.691772090113	332.635021828025	661.083358683178	635.615071629403	267.451927216752	734.041618544259	557.153837027246	341.297966223252	730.323509509141	487.174854344716	354.184227402045	703.791882792110	414.570442787175	344.233875330078	618.483543391352	301.122056602399	286.551479291250	656.134437041655	191.626414811829	366.306777067909	779.320308554671	430.568311307683	567.620670840179	656.129782606241	392.337797671323	624.360979553374	642.530349096698	282.599418404274	577.142783612492	444.097786086169	233.269502388987	542.635684230123	603.274845774952	157.171248384684	590.763960487197	493.514864223621	169.762119974460	619.310522779078	652.909683004659	37.196797766372	622.530719687961	519.494028531406	37.177016948270	396.804427463942	599.459404966772	34.815933271695	321.415694234028	680.452007152254	95.914222734962	354.558606621836	810.577389399400	43.920287235279	335.200823973589	690.204534678490	1100.895530491752	137.743023066806	905.394200623151	953.195822101900	149.150803979126	531.780214456844	1093.073184845805	700.342642089292	557.554108856938	832.559544426905	709.173676836826	
55	8.739857142857	699.982691648416	968.105562101195	295.923758063410	471.279223930584	1000.485155011961	431.905632821695	643.395822188239	1444.701496581591	277.342716254028	728.045910515219	1374.837652966205	448.647525507022	618.130510716175	1437.348907943501	612.755125617303	618.970906222968	1500.584578775005	426.230207673266	689.165112833050	950.148070069222	569.901474714915	781.823297226734	783.244051583306	541.681164941983	743.473218323186	660.714552996388	611.758024656950	837.623201376875	623.441645271042	536.315618358582	859.752864797965	510.555334788208	560.169474980509	743.741619607037	749.858469299871	332.394433566830	656.893994576816	635.680088004785	266.907997419760	728.622193672583	556.441028581350	340.930034809688	724.047903658953	486.613501739582	353.843032726893	697.548388758902	414.379977592828	343.860961970018	612.035200974221	301.072367194226	286.191775636531	649.288555380750	191.557948504453	366.115571406036	785.857646973936	433.001013675448	565.965491800959	664.624636507269	389.685049796664	623.016770223990	655.570058438992	279.379148050155	575.958160492725	459.056022557815	219.688466924658	541.819808059367	622.356168756929	153.336297672054	590.016046580187	512.344836494615	159.953663004346	618.923435958128	678.795236248545	37.221178975982	622.762683520357	512.345023773435	37.221832618218	396.775764055817	592.345693384997	34.804547959267	321.397153606027	673.404241092522	95.865300883142	354.501299289208	803.504910060993	43.720259162419	335.207869113987	694.756718507332	1102.555112435246	136.057109751194	915.749586578932	964.428681346169	149.360796689553	522.995483511509	1096.315554250488	698.604854849186	537.627522180010	835.053728399661	707.706927439409	
56	8.753928571429	699.269427733876	968.233112127691	295.582853463318	470.220238972055	1001.030225553857	430.616188260115	644.297500558255	1445.063140036853	276.176513688493	727.549307008256	1375.191182071882	448.093181958710	616.623470657993	1438.034105105701	611.348504586727	619.166913702129	1501.020327711831	424.936782412051	687.653037932457	951.082882254583	569.489615038179	781.352912101443	785.660038362387	540.118999538166	744.846036290824	662.699088671921	610.546605272077	838.332499843661	626.185915533144	534.206280809643	862.416575173464	514.542893199329	558.459704769091	740.806177911926	749.000618952887	332.241850072226	652.684136410899	635.721947863114	266.403651679845	723.225518316072	555.730997083168	340.564074393748	717.827946755775	486.042506168490	353.478238019310	691.349818495838	414.178883514885	343.485353018674	605.611272201368	301.030020734391	285.841130906729	642.462642951405	191.481768183086	365.900642430663	791.748055841580	434.957715660362	564.674987210862	673.060822640824	385.874178023318	622.103254401407	669.254163627924	275.223473549966	575.090384406348	475.590878753719	204.210076509720	541.468214871203	642.837296683232	148.587992313267	589.441671661611	532.890820852866	148.548305142674	618.816477284600	706.590503940696	37.080786766060	622.842944874774	505.216346824167	37.286527200801	396.739740335215	585.242742619864	34.795651542650	321.379000718569	666.374200423468	95.802695035776	354.439503625577	796.450506256092	43.475255486844	335.217498491672	698.986628608392	1103.937497441539	134.614928630826	925.119573932549	975.223178657228	149.864312985762	514.288736406369	1099.843236784419	697.175591861876	519.285738574248	838.426496135657	706.430696966635	
57	8.768000000000	698.504543581953	968.202745619831	295.330852609803	469.124872166953	1001.498966367870	429.485527776407	645.359885763742	1445.183812621699	275.090661210553	727.229889713094	1375.316511773398	447.612046595636	615.387175534040	1438.645288703429	610.036780207690	619.541108798584	1501.294464300498	423.702003396605	686.108218109541	951.764651889864	569.188952456701	780.450358268105	787.388730289726	538.932721627495	745.286348497120	664.141735135069	609.700813857604	838.082326781486	628.118079246661	532.609288311852	863.889958267499	518.027201073792	557.218548404842	737.829331522948	748.123535501003	332.122818798451	648.479980365298	635.731072529036	265.924031163135	717.906954905774	555.020719137351	340.165103852884	711.729417876734	485.459842470937	353.064191897047	685.244962726045	413.954021408322	343.091280534842	599.243060829714	300.993330092600	285.492257601494	635.676259844479	191.391896187477	365.655205858981	796.938883228757	436.461025721766	563.770021427351	681.446607069719	381.088081205371	621.642381049747	683.502790604570	270.416825965334	574.560407288930	493.812925259476	187.422153354040	541.536723418506	664.522679669881	143.331399582744	589.098187493116	555.071673597398	136.120739561684	618.988603673167	735.808359589486	37.084335457075	622.871297774734	498.116204597119	37.375178522083	396.692942519289	578.155288219396	34.790933335883	321.359369810150	659.365169177016	95.727828660033	354.369697453249	789.417200458972	43.189402408369	335.224771764901	702.912154371963	1104.984518065410	133.407526165366	933.536846945115	985.402048860362	150.634374978598	505.767224474407	1103.560672765661	695.982112000846	502.531370289982	842.378817597314	705.343756407150	
58	8.782071428571	697.688890769815	968.012293729164	295.161768475188	467.997500721568	1001.879523648117	428.516813258282	646.558853766468	1445.047301682968	274.094876244466	727.092315344321	1375.195527141304	447.201372017086	614.461871170348	1439.161078142322	608.845597729093	620.097891106410	1501.396301894926	422.541841930712	684.524249355917	952.163524582532	568.999977204994	779.083283188447	788.378134804914	538.163638371340	744.721477569598	664.995061746044	609.237452353196	836.852200982111	629.203849813773	531.567581065557	864.160666993865	520.962504414377	556.437254639819	734.842103049156	747.234632431018	332.001626716190	644.304166372045	635.703854459535	265.464705103229	712.707823919291	554.309083485826	339.715625979864	705.801358718295	484.866099317954	352.588829825042	679.267640535798	413.696943317647	342.672008922906	592.949193955721	300.963834075937	285.143347281415	628.941714946795	191.285388328965	365.377240925190	801.373083476426	437.558499772947	563.246949274171	689.761150071005	375.553395197098	621.625345770995	698.188368946899	265.271102657792	574.368279188982	513.722089227383	169.928717548915	541.959478675420	687.166534474334	137.991185573753	589.020932673557	578.731545680285	123.259548117851	619.420988344392	765.945547431575	37.576324473447	622.938104794064	491.048550643459	37.489888496998	396.633631136011	571.085478490019	34.791479903758	321.337383305778	652.377729280285	95.643264961224	354.289263576492	782.404848661258	42.869999745697	335.225718230336	706.551083869477	1105.662346935090	132.434508667075	941.035243950971	994.798586701662	151.643077374544	497.572434046852	1107.364018014047	694.957185748376	487.350559847785	846.638823885424	704.433695616224	
59	8.796142857143	696.828728398194	967.673460486141	295.077523793344	466.851197669863	1002.173121022469	427.714099734644	647.862311481920	1444.659956603631	273.201901987472	727.133378732518	1374.831477437305	446.860598255342	613.876983217618	1439.572260738768	607.800754996351	620.831479231021	1501.330401175676	421.477396843336	682.902246557706	952.273455672050	568.928997515348	777.221491888707	788.610436791776	537.835689024964	743.102930598221	665.240341768427	609.155252507088	834.638532751920	629.446459405062	531.091432234965	863.238705105362	523.326112109970	556.075168281492	731.868524082234	746.342067907397	331.864214317222	640.174234919955	635.642485120780	265.030769384982	707.651937894184	553.596917194501	339.216063021489	700.071847540241	484.264210796081	352.053318167593	673.434095541862	413.404442185157	342.229000996561	586.734332025876	300.945587541678	284.796873077145	622.263836182585	191.162381705568	365.068886562469	804.996473919070	438.314424244138	563.079534070874	697.950891062548	369.523332217402	622.015408993193	713.131711946752	260.098600065386	574.493424119149	535.179968752978	152.324011933020	542.659144556742	710.464385915564	132.966699017614	589.216159305582	603.618562081151	110.525611046765	620.077038860749	796.482125572193	38.875991519229	623.104332340080	484.012772744246	37.630194648807	396.562026519306	564.032802916579	34.797400276136	321.313067557764	645.409945841088	95.552432871192	354.196500950919	775.410428651233	42.527177604157	335.217692655317	709.916233754454	1105.963594476308	131.703138901374	947.647465020103	1003.262594511259	152.862856450299	489.869219952889	1111.144053766989	694.048014071027	473.731582798389	850.969423379512	703.683470991436	
